# xmcd CD database file
#
# Track frame offsets:
#	150
#	21897
#	56457
#	80510
#	99879
#	117447
#	152165
#	168707
#	195297
#	211862
#	237330
#
# Disc length: 3524 seconds
#
# Revision: 6
# Processed by: cddbd v1.5.2PL0 Copyright (c) Steve Scherf et al.
# Submitted via: CDex 1.70beta2
#
DISCID=860dc20b
DTITLE=Lenni-Kalle Taipale Trio - Nothing to Hide
DYEAR=1998
DGENRE=Jazz
TTITLE0=Nothing to Hide
TTITLE1=First Peace
TTITLE2=Sami - Imas
TTITLE3=H‰‰pari (Wedding couple)
TTITLE4=Peppi (H‰r kommer Pippi Langstrump)
TTITLE5=Kohkaus
TTITLE6=Namibia - Diapam
TTITLE7=Like I Care
TTITLE8=Fadin' Storm
TTITLE9=Taivas on sininen ja valkoinen (The Sky is blue and white)
TTITLE10=Invisible Beauty of My Flower
EXTD=YEAR: 1998
EXTT0=
EXTT1=
EXTT2=
EXTT3=
EXTT4=
EXTT5=
EXTT6=
EXTT7=
EXTT8=
EXTT9=
EXTT10=
PLAYORDER=
